Patient4_TMGait_0pt4_03_right_26_EMG.mot
version=1
nRows=13
nColumns=33
inDegrees=no
endheader
time	1LAddLong	2LGlutMax	3LGlutMed	4LIliopsoas	5LSemiMemb	6LBicFemLong	7LRecFem	8LVastMed	9LVastLat	10LGasMed	11LTibAnt	12lTibPost	13LPeroneusLong	14LSol	15LExtDigLong	16LFlexDigLong	17RAddLong	18RGlutMax	19RGlutMed	20RIliopsoas	21RSemiMemb	22RBicFemLong	23RRecFem	24RVastMed	25RVastLat	26RGasMed	27RTibAnt	28RTibPost	29RPeroneusLong	30RSol	31RExtDigLong	32RFlexDigLong
34.515	-0.017548	0.14481	-0.029297	0.002594	0.041809	0.039673	-0.10269	-0.01358	-0.004425	-0.003662	-0.013275	0.019836	0.082703	0.013123	0.004883	0.004425	0.005035	-0.085144	-0.046234	0.018463	-0.019531	-0.079498	-0.21683	-0.001984	0.012054	0.016937	0.1828	-0.009613	-0.17319	0.26382	-0.006714	-0.01297
34.516	-0.007019	0.11505	-0.009766	-0.003357	-0.031891	0.12253	-0.10956	0.014191	0.024567	0.00946	-0.007172	0.021667	-0.005188	0.052643	0.000763	-0.000916	0.003204	-0.053101	-0.034027	0.009003	-0.040588	-0.057831	-0.2681	0.004272	0.005951	0.004578	0.112	-0.010986	-0.6102	0.19959	0.001831	-0.002594
34.517	0.001068	0.10559	-0.01236	-0.00824	-0.016937	0.087738	-0.020142	0.006561	0.068817	-0.004272	-0.008392	0.015411	0.034332	0.069733	0.00351	0.007324	-0.004883	-0.075836	0.25345	0.008087	-0.028839	-0.022888	-0.26657	-0.067291	0.001221	0.002899	0.11063	0.005035	-0.91278	0.054474	-0.002289	-0.00412
34.518	0	0.073242	0.02182	-0.023193	-0.036011	-0.040741	0.07019	0.010529	0.05722	0.004578	-0.00885	0.02243	0.17151	0.058441	0.010986	0.002136	0.007629	-0.06012	0.37781	-0.037842	-0.03952	-0.010223	-0.22858	-0.071564	-0.002136	0	0.053101	0.009766	-0.32806	-0.044403	0.009613	-0.011292
34.519	-0.014038	0.048523	0.009155	0.012512	-0.06073	-0.056458	0.088196	0.010834	0.041351	0.005951	-0.007172	0.018921	0.39871	0.079498	0.010681	-0.001984	0.002136	-0.04715	0.30334	-0.03479	-0.004883	0.023041	-0.21271	-0.009003	-0.05188	0.002441	-0.07019	0.005646	-0.40314	-0.049744	-0.000458	-0.012817
34.52	0.00412	0.007477	-0.014954	0.008698	0.10773	0.002747	0.065613	0.005646	0.002289	-0.007324	0.000305	0.019073	0.036774	0.10162	0.024567	0.010834	0.001678	-0.10712	0.19134	-0.006866	-0.00885	0.053253	-0.20493	-0.038605	-0.05661	-0.000916	-0.18814	-0.000916	0.17548	0.054016	0.000305	-0.011597
34.521	-0.002594	-0.018158	-0.003357	0.022736	0.076752	0.1033	0.083923	0.002289	-0.045471	-0.003815	-0.011444	0.015411	-0.2121	0.10849	0.033875	0.007629	0.00824	-0.078278	0.13931	0.024567	0.010986	0.069733	-0.27969	-0.051422	-0.068665	0.001221	-0.28153	-0.005951	0.77042	0.056458	0	-0.019379
34.522	-0.010681	-0.018921	-0.010071	0.013123	-0.080414	0.059204	0.019379	0.00061	-0.02533	-0.019684	-0.019836	0.014343	0.18387	0.089111	-0.018005	0.010376	0.007477	-0.02655	0.075378	0.019379	0.015869	0.016174	-0.24674	-0.042572	-0.042114	-0.010529	-0.20081	-0.003052	0.55771	-0.041351	-0.001831	-0.021057
34.523	-0.011139	-0.006866	0.006104	0.005493	-0.11963	0.045013	-0.078583	0.001678	0.054779	-0.025635	-0.014496	0.026093	0.010681	0.084991	-0.016937	0.006714	0.006561	-0.026855	0.20523	-0.008545	-0.03479	-0.048828	-0.2446	-0.074921	-0.015869	-0.022583	0.16998	-0.007629	0.35599	-0.1236	-0.003052	-0.021362
34.524	-0.008392	-0.041809	0.018921	-0.007172	-0.094299	0.090332	-0.1178	-0.001831	0.11307	-0.020294	-0.00351	0.017395	-0.1001	0.073547	-0.003052	-0.001068	0.005188	-0.053253	0.29266	-0.022888	-0.027161	-0.022736	-0.44891	-0.08606	0.0383	-0.027161	0.099335	-0.005798	0.20538	-0.14526	-0.004272	-0.015106
34.525	0.005341	-0.039978	-0.010681	0	0.014343	0.080414	-0.087433	-0.006714	0.067749	0.008392	0.002899	0.020294	-0.15228	0.053864	0.023041	0.00412	-0.006409	-0.075989	0.09903	-0.013123	-0.019836	0.065918	-0.60593	0.006256	0.11444	-0.02121	-0.008392	0.003357	-0.30197	-0.12039	-0.005646	-0.00946
34.526	0.00885	-0.065002	-0.010986	0.002594	0.13046	0.1799	-0.16724	0.00061	0.002441	0.006561	0.004272	0.011139	-0.11795	0.064087	0.011749	-0.006714	-0.00412	-0.074921	0.06958	0.023956	-0.011292	0.08728	-0.36972	0.079803	0.13855	-0.021973	-0.008698	-0.000153	-0.61005	-0.014954	-0.003815	-0.009613
34.527	0.006866	-0.047913	0.037842	-0.006409	0.16724	0.17197	-0.21515	0.004425	0.052032	-0.005798	-0.003815	0.015717	0.039825	0.10254	-0.025177	0.005341	0.00351	-0.031433	0.13702	0.01358	-0.002899	0.013275	-0.27527	-0.016022	0.051727	0.014038	0.013123	-0.010376	0.054169	0.020599	-0.002136	-0.00885
